#!OML:ASF X:\für Bonn\!DataBase\2005_08_12_Daniel\c3d\Daniel.ASF
:FULLY-SPECIFIED
:DEGREES
200
root -1.37155 16.1442 0.249565 887.38 -43.9201 -897.347
lowerback 37.5304 -3.663 6.60054
upperback 9.40329 -4.35708 -0.315917
thorax -8.30292 -2.96236 -1.93777
lowerneck -2.05693 3.25145 -0.944246
upperneck -0.329609 4.34105 -4.01271
head 0.310145 2.13733 -1.03
rclavicle 3.61788e-014 1.3418e-015
rhumerus -40.3066 2.24141 -85.5297
rradius 72.134
rwrist 2.53523
rhand -30.3407 11.9401
rfingers 7.12502
rthumb -3.64645 -18.0084
lclavicle 3.61788e-014 1.3418e-015
lhumerus -29.4685 14.2508 83.9866
lradius 79.5973
lwrist -9.7814
lhand -27.4288 2.35294
lfingers 7.12502
lthumb -0.834245 32.331
rfemur -22.8714 4.75143 27.6292
rtibia 59.9332
rfoot -23.0579 0.103707
rtoes -9.91728
lfemur -10.863 7.13116 -13.5571
ltibia 86.6287
lfoot -15.425 -9.49085
ltoes -7.27738
201
root -1.44212 16.1437 0.152382 887.245 -44.1253 -897.488
lowerback 37.5816 -3.50669 6.43402
upperback 9.43651 -4.22776 -0.368713
thorax -8.27382 -2.90047 -1.95911
lowerneck -2.1253 3.19072 -0.894507
upperneck -0.242583 4.26419 -3.99887
head 0.34769 2.09689 -1.03291
rclavicle -5.13113e-014 -1.30701e-014
rhumerus -40.1275 2.28715 -85.4436
rradius 72.2578
rwrist 2.49938
rhand -30.3955 12.0299
rfingers 7.12502
rthumb -3.69935 -17.9178
lclavicle -5.13113e-014 -1.30701e-014
lhumerus -29.5697 14.3717 83.8543
lradius 79.4859
lwrist -9.94336
lhand -27.4038 2.36013
lfingers 7.12502
lthumb -0.81011 32.3383
rfemur -22.2446 4.58876 27.6077
rtibia 60.1541
rfoot -23.3599 0.107534
rtoes -9.92283
lfemur -12.0664 6.97469 -13.771
ltibia 86.9298
lfoot -15.9967 -9.23821
ltoes -7.05685
202
root -1.51328 16.1417 0.0572724 887.101 -44.3158 -897.575
lowerback 37.6243 -3.35018 6.28715
upperback 9.45304 -4.08557 -0.401221
thorax -8.25849 -2.83213 -1.97383
lowerneck -2.14272 3.142 -0.788026
upperneck -0.228148 4.19798 -4.04617
head 0.357589 2.06308 -1.06567
rclavicle 2.39039e-014 -2.45499e-014
rhumerus -39.9627 2.25681 -85.3442
rradius 72.3867
rwrist 2.49703
rhand -30.258 12.1861
rfingers 7.12502
rthumb -3.56664 -17.7638
lclavicle 2.39039e-014 -2.45499e-014
lhumerus -29.6474 14.533 83.7017
lradius 79.3246
lwrist -10.0554
lhand -27.4409 2.22227
lfingers 7.12502
lthumb -0.845925 32.2003
rfemur -21.6857 4.43835 27.6087
rtibia 60.3917
rfoot -23.6559 0.135634
rtoes -9.80471
lfemur -13.2841 6.81742 -13.9705
ltibia 87.1309
lfoot -16.5707 -8.9553
ltoes -7.0213
203
root -1.58542 16.1373 -0.0349759 886.907 -44.5378 -897.67
lowerback 37.6804 -3.22281 6.21932
upperback 9.49109 -3.95852 -0.468823
thorax -8.22965 -2.77167 -2.06044
lowerneck -2.21069 3.06692 -0.757373
upperneck -0.122957 4.10263 -4.03771
head 0.400004 2.01298 -1.06734
rclavicle -1.71203e-014 -2.61402e-014
rhumerus -39.7716 2.29182 -85.2388
rradius 72.5134
rwrist 2.51377
rhand -30.2572 12.1765
rfingers 7.12502
rthumb -3.56582 -17.7734
lclavicle -1.71203e-014 -2.61402e-014
lhumerus -29.7769 14.6462 83.5709
lradius 79.2336
lwrist -10.2271
lhand -27.3699 2.17937
lfingers 7.12502
lthumb -0.777332 32.1577
rfemur -21.0552 4.21231 27.5925
rtibia 60.6162
rfoot -23.9581 0.169486
rtoes -9.74396
lfemur -14.4521 6.60298 -14.2317
ltibia 87.2493
lfoot -17.1019 -8.70031
ltoes -7.02125
204
root -1.65685 16.1364 -0.128903 886.786 -44.7615 -897.821
lowerback 37.6788 -3.05526 6.05049
upperback 9.5535 -3.82303 -0.506455
thorax -8.14879 -2.70759 -2.07036
lowerneck -2.30647 3.01255 -0.725673
upperneck -0.0518583 4.03387 -4.04859
head 0.437567 1.97617 -1.07485
rclavicle -5.36967e-014 -1.22253e-014
rhumerus -39.5493 2.20103 -85.1132
rradius 72.6503
rwrist 2.59389
rhand -30.1343 12.3235
rfingers 7.12502
rthumb -3.44719 -17.6284
lclavicle -5.36967e-014 -1.22253e-014
lhumerus -29.8866 14.7396 83.4444
lradius 79.1858
lwrist -10.2169
lhand -27.3693 2.09285
lfingers 7.12502
lthumb -0.776742 32.0712
rfemur -20.4697 4.01394 27.5369
rtibia 60.8388
rfoot -24.1937 0.187845
rtoes -9.7264
lfemur -15.6293 6.3076 -14.564
ltibia 87.2532
lfoot -17.5774 -8.4774
ltoes -7.36018
205
root -1.72843 16.1414 -0.220749 886.594 -44.9499 -897.907
lowerback 37.7664 -2.92263 5.95287
upperback 9.55952 -3.69184 -0.55426
thorax -8.16369 -2.64507 -2.11933
lowerneck -2.27849 2.95188 -0.792886
upperneck -0.0378279 3.95422 -3.96997
head 0.432404 1.9371 -1.04045
rclavicle -7.75757e-014 3.76697e-014
rhumerus -39.4339 2.23422 -85.0141
rradius 72.7982
rwrist 2.58376
rhand -30.0227 12.3777
rfingers 7.12502
rthumb -3.33939 -17.5759
lclavicle -7.75757e-014 3.76697e-014
lhumerus -30.1211 14.8652 83.2913
lradius 79.1585
lwrist -10.3007
lhand -27.3636 1.95369
lfingers 7.12502
lthumb -0.771283 31.932
rfemur -19.7952 3.77893 27.5212
rtibia 60.9908
rfoot -24.445 0.248552
rtoes -9.87101
lfemur -16.7563 5.98025 -14.8696
ltibia 87.1733
lfoot -18.0191 -8.24222
ltoes -7.31827
206
root -1.79999 16.1454 -0.313454 886.432 -45.1703 -897.998
lowerback 37.7682 -2.77732 5.89581
upperback 9.6111 -3.54194 -0.619387
thorax -8.09976 -2.5731 -2.22089
lowerneck -2.37858 2.86011 -0.784779
upperneck 0.047158 3.83649 -3.95736
head 0.473079 1.87568 -1.03731
rclavicle -8.71919e-014 2.99668e-014
rhumerus -39.2441 2.12761 -84.92
rradius 72.9491
rwrist 2.69802
rhand -30.0244 12.446
rfingers 7.12502
rthumb -3.34101 -17.5076
lclavicle -8.71919e-014 2.99668e-014
lhumerus -30.2609 14.9718 83.1987
lradius 79.126
lwrist -10.4608
lhand -27.3546 1.84426
lfingers 7.12502
lthumb -0.762553 31.8226
rfemur -19.1824 3.5254 27.4892
rtibia 61.1559
rfoot -24.6112 0.320854
rtoes -10.0488
lfemur -17.889 5.57751 -15.2233
ltibia 87.0039
lfoot -18.4287 -7.91742
ltoes -7.73306
207
root -1.87043 16.1453 -0.404746 886.319 -45.3949 -898.132
lowerback 37.7788 -2.64279 5.76372
upperback 9.61432 -3.42123 -0.677866
thorax -8.09306 -2.51252 -2.26281
lowerneck -2.26485 2.81627 -0.859036
upperneck 0.0301156 3.77675 -3.87047
head 0.444278 1.84826 -1.00035
rclavicle -1.06847e-014 9.54166e-015
rhumerus -39.1734 2.13196 -84.8379
rradius 73.1273
rwrist 2.80119
rhand -29.9489 12.4221
rfingers 7.12502
rthumb -3.26813 -17.5326
lclavicle -1.06847e-014 9.54166e-015
lhumerus -30.5298 15.062 82.9984
lradius 79.1296
lwrist -10.455
lhand -27.2803 1.6505
lfingers 7.12502
lthumb -0.690859 31.6291
rfemur -18.5874 3.31425 27.4317
rtibia 61.3204
rfoot -24.8034 0.353137
rtoes -9.93364
lfemur -19.0259 5.14176 -15.6138
ltibia 86.7734
lfoot -18.7476 -7.57039
ltoes -7.64146
208
root -1.94156 16.1429 -0.494427 886.112 -45.5696 -898.199
lowerback 37.834 -2.51203 5.72722
upperback 9.64475 -3.2787 -0.750856
thorax -8.07176 -2.4447 -2.37696
lowerneck -2.32354 2.74353 -0.939603
upperneck 0.125817 3.68605 -3.79074
head 0.478473 1.80125 -0.961871
rclavicle 4.62174e-015 1.0635e-014
rhumerus -39.0351 2.10376 -84.7731
rradius 73.2709
rwrist 3.01117
rhand -29.9505 12.2818
rfingers 7.12502
rthumb -3.26969 -17.6728
lclavicle 4.62174e-015 1.0635e-014
lhumerus -30.731 15.0712 82.8179
lradius 79.1295
lwrist -10.41
lhand -27.2523 1.5987
lfingers 7.12502
lthumb -0.663799 31.5774
rfemur -17.9555 3.06224 27.4095
rtibia 61.4897
rfoot -24.9712 0.449508
rtoes -10.052
lfemur -20.068 4.76288 -15.9359
ltibia 86.4722
lfoot -19.0383 -7.27508
ltoes -7.67382
